<svg width="105" height="56" viewBox="0 0 105 56" fill="none" xmlns="http://www.w3.org/2000/svg">
<path fill-rule="evenodd" clip-rule="evenodd" d="M105 9C105 13.9706 100.971 18 96 18C94.788 18 93.6319 17.7604 92.5766 17.326L75.2564 34.4122C75.7348 35.5114 76 36.7247 76 38C76 42.9706 71.9706 47 67 47C62.0294 47 58 42.9706 58 38C58 36.9865 58.1675 36.0122 58.4764 35.1031L45.4725 22.3057C44.4039 22.7529 43.2308 23 42 23C40.5753 23 39.2279 22.669 38.0306 22.0796L16.984 42.8419C17.633 44.0856 18 45.5 18 47C18 51.9706 13.9706 56 9 56C4.02944 56 0 51.9706 0 47C0 42.0294 4.02944 38 9 38C9.88663 38 10.7433 38.1282 11.5525 38.3671L33.437 16.7783C33.1533 15.9033 33 14.9695 33 14C33 9.02944 37.0294 5 42 5C46.9706 5 51 9.02944 51 14C51 15.1677 50.7776 16.2834 50.3729 17.3071L63.1372 29.8688C64.3077 29.3117 65.6175 29 67 29C68.1221 29 69.1962 29.2053 70.1868 29.5805L87.6467 12.3564C87.2296 11.3192 87 10.1864 87 9C87 4.02944 91.0294 0 96 0C100.971 0 105 4.02944 105 9ZM61.3937 30.959L49.3869 19.1428C48.811 19.9685 48.1001 20.6931 47.2863 21.2847L59.3887 33.1949C59.9283 32.3419 60.6073 31.586 61.3937 30.959ZM47.5482 17.7291C48.2656 16.6639 48.6843 15.3808 48.6843 14C48.6843 10.3084 45.6916 7.31573 42 7.31573C38.3084 7.31573 35.3157 10.3084 35.3157 14C35.3157 17.6916 38.3084 20.6843 42 20.6843C43.4194 20.6843 44.7354 20.2419 45.8178 19.4874L47.5482 17.7291ZM72.2725 30.7053L72.0861 30.5163L88.0676 14.7506L90.1745 16.8863L74.2197 32.6255C73.6721 31.891 73.0149 31.2429 72.2725 30.7053ZM89.3157 9C89.3157 12.6916 92.3084 15.6843 96 15.6843C99.6916 15.6843 102.684 12.6916 102.684 9C102.684 5.30838 99.6916 2.31573 96 2.31573C92.3084 2.31573 89.3157 5.30838 89.3157 9ZM60.3157 38C60.3157 41.6916 63.3084 44.6843 67 44.6843C70.6916 44.6843 73.6843 41.6916 73.6843 38C73.6843 34.3084 70.6916 31.3157 67 31.3157C63.3084 31.3157 60.3157 34.3084 60.3157 38ZM34.3164 18.7201L34.3684 18.7729C34.8914 19.6073 35.5474 20.3498 36.3067 20.9708L15.8449 41.1562C15.1899 40.3897 14.4084 39.7345 13.5327 39.2231L34.3164 18.7201ZM9 40.3157C10.7547 40.3157 12.3515 40.9919 13.5441 42.0978L13.9639 42.5234C15.0332 43.7084 15.6843 45.2782 15.6843 47C15.6843 50.6916 12.6916 53.6843 9 53.6843C5.30838 53.6843 2.31573 50.6916 2.31573 47C2.31573 43.3084 5.30838 40.3157 9 40.3157Z" fill="white" fill-opacity="0.8"/>
</svg>
