<svg width="59" height="59" viewBox="0 0 59 59" fill="none" xmlns="http://www.w3.org/2000/svg">
<path fill-rule="evenodd" clip-rule="evenodd" d="M0 0.921875C0 0.412737 0.412738 0 0.921875 0H24.8906C25.3998 0 25.8125 0.412738 25.8125 0.921875V31.3438C25.8125 31.8529 25.3998 32.2656 24.8906 32.2656H0.921875C0.412737 32.2656 0 31.8529 0 31.3438V0.921875ZM2.30469 29.9609V2.30469H23.5078V29.9609H2.30469Z" fill="white" fill-opacity="0.8"/>
<path fill-rule="evenodd" clip-rule="evenodd" d="M33.1875 0.921875C33.1875 0.412738 33.6002 0 34.1094 0H58.0781C58.5873 0 59 0.412738 59 0.921875V19.3594C59 19.8685 58.5873 20.2812 58.0781 20.2812H34.1094C33.6002 20.2812 33.1875 19.8685 33.1875 19.3594V0.921875ZM35.4922 17.9766V2.30469H56.6953V17.9766H35.4922Z" fill="white" fill-opacity="0.8"/>
<path fill-rule="evenodd" clip-rule="evenodd" d="M34.1094 25.8125C33.6002 25.8125 33.1875 26.2252 33.1875 26.7344V58.0781C33.1875 58.5873 33.6002 59 34.1094 59H58.0781C58.5873 59 59 58.5873 59 58.0781V26.7344C59 26.2252 58.5873 25.8125 58.0781 25.8125H34.1094ZM35.4922 28.1172V56.6953H56.6953V28.1172H35.4922Z" fill="white" fill-opacity="0.8"/>
<path fill-rule="evenodd" clip-rule="evenodd" d="M0 39.6406C0 39.1315 0.412738 38.7188 0.921875 38.7188H24.8906C25.3998 38.7188 25.8125 39.1315 25.8125 39.6406V58.0781C25.8125 58.5873 25.3998 59 24.8906 59H0.921875C0.412737 59 0 58.5873 0 58.0781V39.6406ZM2.30469 56.6953V41.0234H23.5078V56.6953H2.30469Z" fill="white" fill-opacity="0.8"/>
</svg>
