<svg width="84" height="61" viewBox="0 0 84 61" fill="none" xmlns="http://www.w3.org/2000/svg">
<path d="M62.2798 21.8556H50.6914C50.3072 21.8556 49.9387 21.7029 49.6671 21.431C49.3954 21.1591 49.2428 20.7903 49.2428 20.4058C49.2428 20.0213 49.3954 19.6525 49.6671 19.3807C49.9387 19.1088 50.3072 18.956 50.6914 18.956H62.2798C62.664 18.956 63.0325 19.1088 63.3041 19.3807C63.5758 19.6525 63.7284 20.0213 63.7284 20.4058C63.7284 20.7903 63.5758 21.1591 63.3041 21.431C63.0325 21.7029 62.664 21.8556 62.2798 21.8556ZM33.3086 18.956H28.963V14.6066C28.963 14.2221 28.8104 13.8534 28.5387 13.5815C28.267 13.3096 27.8986 13.1569 27.5144 13.1569C27.1302 13.1569 26.7618 13.3096 26.4901 13.5815C26.2185 13.8534 26.0658 14.2221 26.0658 14.6066V18.956H21.7202C21.336 18.956 20.9675 19.1088 20.6959 19.3807C20.4242 19.6525 20.2716 20.0213 20.2716 20.4058C20.2716 20.7903 20.4242 21.1591 20.6959 21.431C20.9675 21.7029 21.336 21.8556 21.7202 21.8556H26.0658V26.205C26.0658 26.5895 26.2185 26.9582 26.4901 27.2301C26.7618 27.502 27.1302 27.6548 27.5144 27.6548C27.8986 27.6548 28.267 27.502 28.5387 27.2301C28.8104 26.9582 28.963 26.5895 28.963 26.205V21.8556H33.3086C33.6928 21.8556 34.0613 21.7029 34.3329 21.431C34.6046 21.1591 34.7572 20.7903 34.7572 20.4058C34.7572 20.0213 34.6046 19.6525 34.3329 19.3807C34.0613 19.1088 33.6928 18.956 33.3086 18.956ZM74.4477 60.8187C73.7776 60.933 73.0995 60.9936 72.4197 61C70.898 61.0033 69.3908 60.7039 67.9858 60.119C66.5807 59.5341 65.3059 58.6754 64.2354 57.593L64.1267 57.5205L48.9531 40.6304L35.0469 40.7029L19.8733 57.5205L19.7646 57.593C18.6941 58.6754 17.4193 59.5341 16.0142 60.119C14.6092 60.7039 13.102 61.0033 11.5803 61C10.9005 60.9936 10.2224 60.933 9.55227 60.8187C6.53168 60.271 3.85019 58.5497 2.09298 56.0305C0.335771 53.5112 -0.354484 50.3986 0.172852 47.3719L6.07573 16.9626V16.8901C6.89562 12.1828 9.35141 7.91698 13.0093 4.84628C16.6671 1.77558 21.2916 0.0975815 26.0658 0.108734L57.9342 0C62.6879 0.00861285 67.288 1.68535 70.934 4.73835C74.5799 7.79135 77.0407 12.0273 77.8881 16.7088C77.8881 16.7451 77.8881 16.7451 77.9243 16.7451L83.8271 47.3719C84.3545 50.3986 83.6642 53.5112 81.907 56.0305C80.1498 58.5497 77.4683 60.271 74.4477 60.8187ZM57.9342 37.6946C60.2169 37.6946 62.4773 37.2446 64.5862 36.3703C66.6952 35.496 68.6115 34.2145 70.2256 32.599C71.8397 30.9835 73.1201 29.0656 73.9937 26.9548C74.8672 24.844 75.3169 22.5817 75.3169 20.2971C75.3169 18.0124 74.8672 15.7501 73.9937 13.6393C73.1201 11.5286 71.8397 9.6107 70.2256 7.99519C68.6115 6.37968 66.6952 5.09819 64.5862 4.22389C62.4773 3.34958 60.2169 2.89958 57.9342 2.89958L26.0658 3.00832C21.9954 3.0032 18.0528 4.43088 14.928 7.04153C11.8032 9.65219 9.69516 13.2795 8.97285 17.2888C8.97285 17.325 8.93664 17.3612 8.93664 17.3975L3.03376 47.9156C2.83576 49.0366 2.86047 50.1856 3.10646 51.297C3.35245 52.4085 3.81491 53.4605 4.46739 54.3929C5.11986 55.3253 5.94957 56.1199 6.90906 56.7312C7.86856 57.3424 8.93903 57.7585 10.0593 57.9554C11.4283 58.1975 12.8353 58.1101 14.1639 57.7004C15.4926 57.2908 16.7048 56.5706 17.7004 55.5995L33.3449 38.2745C33.4771 38.1266 33.6389 38.0082 33.8198 37.927C34.0008 37.8458 34.1968 37.8037 34.3951 37.8033L57.9342 37.6946ZM80.9662 47.8794L76.9827 27.2561C75.5614 31.1687 72.9704 34.5481 69.5621 36.9346C66.1539 39.3212 62.0938 40.5989 57.9342 40.5942H52.8642L66.2996 55.5633C67.6124 56.8628 69.3046 57.7101 71.1309 57.9824C72.9572 58.2546 74.8227 57.9377 76.457 57.0774C78.0912 56.2172 79.4092 54.8585 80.22 53.1981C81.0308 51.5378 81.2922 49.6621 80.9662 47.8431V47.8794Z" fill="white" fill-opacity="0.8"/>
</svg>
