<svg width="24" height="24" viewBox="0 0 24 24" fill="none" xmlns="http://www.w3.org/2000/svg">
<path d="M20.5836 14.9452L18.6135 7.84436C18.1928 6.32539 17.2761 4.9908 16.0093 4.05297C14.7426 3.11514 13.1985 2.62798 11.6229 2.66902C10.0473 2.71006 8.53068 3.27694 7.31445 4.27944C6.09822 5.28194 5.25225 6.66245 4.9112 8.20125L3.38737 15.0588C3.31364 15.3911 3.31544 15.7356 3.39264 16.0671C3.46983 16.3985 3.62046 16.7084 3.83341 16.9738C4.04635 17.2393 4.31618 17.4535 4.62299 17.6008C4.92979 17.748 5.26574 17.8245 5.60605 17.8246H8.33924C8.51315 18.6811 8.97781 19.4511 9.65448 20.0042C10.3312 20.5573 11.1782 20.8594 12.0522 20.8594C12.9261 20.8594 13.7732 20.5573 14.4499 20.0042C15.1266 19.4511 15.5912 18.6811 15.7651 17.8246H18.3945C18.7447 17.8245 19.0901 17.7434 19.4037 17.5878C19.7174 17.4322 19.9909 17.2062 20.2029 16.9275C20.4148 16.6488 20.5596 16.3249 20.6257 15.981C20.6919 15.6372 20.6778 15.2827 20.5844 14.9452H20.5836ZM12.0522 19.3401C11.5837 19.3382 11.1273 19.1915 10.7453 18.9202C10.3633 18.649 10.0745 18.2663 9.91838 17.8246H14.186C14.0298 18.2663 13.741 18.649 13.3591 18.9202C12.9771 19.1915 12.5207 19.3382 12.0522 19.3401ZM18.9969 16.0098C18.9262 16.1035 18.8346 16.1794 18.7293 16.2314C18.6241 16.2834 18.5081 16.31 18.3907 16.3091H5.60605C5.49259 16.3091 5.38058 16.2836 5.27829 16.2345C5.17599 16.1854 5.08604 16.114 5.01505 16.0254C4.94406 15.9369 4.89386 15.8336 4.86815 15.7231C4.84244 15.6126 4.84187 15.4977 4.86649 15.3869L6.39032 8.52936C6.65882 7.32167 7.32333 6.23839 8.2782 5.45174C9.23308 4.66508 10.4235 4.22019 11.6603 4.18779C12.897 4.15539 14.1091 4.53734 15.1039 5.27292C16.0986 6.00851 16.8189 7.0555 17.1503 8.24748L19.1204 15.3483C19.1526 15.4606 19.1582 15.5788 19.1367 15.6936C19.1153 15.8085 19.0674 15.9167 18.9969 16.0098Z" fill="#A0A0A0"/>
</svg>
