<svg width="990" height="58" viewBox="0 0 990 58" fill="none" xmlns="http://www.w3.org/2000/svg">
<path d="M24 0V58H14.0979V10.9574L0 19.6903V9.80398L15.021 0H24Z" fill="#A30236"/>
<path d="M23 0H299C304.523 0 309 4.47715 309 10V48C309 53.5229 304.523 58 299 58H23V0Z" fill="#A30236" fill-opacity="0.5"/>
<path d="M50.592 17.472H68.8V40H64.992V20.896H54.4V40H50.592V17.472ZM76.3663 40H72.0783L77.5823 31.328C76.2809 30.752 75.2569 29.888 74.5103 28.736C73.7636 27.584 73.3903 26.2613 73.3903 24.768C73.3903 22.6133 74.0943 20.864 75.5023 19.52C76.9103 18.1547 78.7983 17.472 81.1663 17.472H89.3903V40H85.5823V32.032H81.3903L76.3663 40ZM78.3823 21.92C77.6356 22.6453 77.2623 23.5947 77.2623 24.768C77.2623 25.9413 77.6463 26.9013 78.4143 27.648C79.1823 28.3733 80.2489 28.736 81.6143 28.736H85.5823V20.832H81.5823C80.2169 20.832 79.1503 21.1947 78.3823 21.92ZM93.0247 20.896V17.472H111.009V20.896H103.937V40H100.129V20.896H93.0247ZM122.815 25.44C125.204 25.44 127.092 26.1227 128.479 27.488C129.865 28.8533 130.559 30.592 130.559 32.704C130.559 34.7947 129.855 36.5333 128.447 37.92C127.06 39.3067 125.215 40 122.911 40H114.655V17.472H118.463V25.44H122.815ZM122.431 28.8H118.463V36.64H122.431C123.753 36.64 124.788 36.2773 125.535 35.552C126.303 34.8267 126.687 33.8773 126.687 32.704C126.687 31.5093 126.313 30.56 125.567 29.856C124.82 29.152 123.775 28.8 122.431 28.8ZM141.436 40V17.472H150.14C152.337 17.472 154.044 18.0267 155.26 19.136C156.476 20.224 157.084 21.6213 157.084 23.328C157.084 24.5653 156.796 25.6107 156.22 26.464C155.644 27.296 154.95 27.8827 154.14 28.224C155.142 28.5227 156.028 29.12 156.796 30.016C157.564 30.912 157.948 32.1067 157.948 33.6C157.948 35.4987 157.265 37.0453 155.9 38.24C154.534 39.4133 152.71 40 150.428 40H141.436ZM150.14 30.016H145.244V36.736H150.012C151.249 36.736 152.23 36.448 152.956 35.872C153.702 35.2747 154.076 34.4427 154.076 33.376C154.076 32.3307 153.713 31.5093 152.988 30.912C152.284 30.3147 151.334 30.016 150.14 30.016ZM149.596 20.736H145.244V26.88H149.756C150.886 26.88 151.75 26.6027 152.348 26.048C152.945 25.472 153.244 24.7253 153.244 23.808C153.244 22.848 152.924 22.1013 152.284 21.568C151.644 21.0133 150.748 20.736 149.596 20.736ZM170.697 20.352C172.639 18.176 175.188 17.088 178.345 17.088C181.503 17.088 184.052 18.176 185.993 20.352C187.935 22.5067 188.905 25.3013 188.905 28.736C188.905 32.1707 187.935 34.976 185.993 37.152C184.052 39.3067 181.503 40.384 178.345 40.384C175.188 40.384 172.639 39.3067 170.697 37.152C168.756 34.976 167.785 32.1707 167.785 28.736C167.785 25.3013 168.756 22.5067 170.697 20.352ZM173.481 34.656C174.676 36.1493 176.297 36.896 178.345 36.896C180.393 36.896 182.015 36.1387 183.209 34.624C184.425 33.1093 185.033 31.1467 185.033 28.736C185.033 26.3253 184.425 24.3627 183.209 22.848C182.015 21.3333 180.393 20.576 178.345 20.576C176.297 20.576 174.676 21.3333 173.481 22.848C172.287 24.3413 171.689 26.304 171.689 28.736C171.689 31.168 172.287 33.1413 173.481 34.656ZM213.135 36.544V44.288H209.487V40H193.999V44.288H190.351V36.544H192.111C192.879 36.0107 193.445 35.1573 193.807 33.984C194.17 32.7893 194.426 31.0827 194.575 28.864L195.311 17.472H210.383V36.544H213.135ZM198.223 28.864C198.074 31.0613 197.861 32.7253 197.583 33.856C197.327 34.9653 196.901 35.8613 196.303 36.544H206.575V20.896H198.735L198.223 28.864ZM220.4 40H216.592V17.472H220.4V26.72H231.088V17.472H234.896V40H231.088V30.176H220.4V40ZM241.916 20.352C243.857 18.176 246.407 17.088 249.564 17.088C252.721 17.088 255.271 18.176 257.212 20.352C259.153 22.5067 260.124 25.3013 260.124 28.736C260.124 32.1707 259.153 34.976 257.212 37.152C255.271 39.3067 252.721 40.384 249.564 40.384C246.407 40.384 243.857 39.3067 241.916 37.152C239.975 34.976 239.004 32.1707 239.004 28.736C239.004 25.3013 239.975 22.5067 241.916 20.352ZM244.7 34.656C245.895 36.1493 247.516 36.896 249.564 36.896C251.612 36.896 253.233 36.1387 254.428 34.624C255.644 33.1093 256.252 31.1467 256.252 28.736C256.252 26.3253 255.644 24.3627 254.428 22.848C253.233 21.3333 251.612 20.576 249.564 20.576C247.516 20.576 245.895 21.3333 244.7 22.848C243.505 24.3413 242.908 26.304 242.908 28.736C242.908 31.168 243.505 33.1413 244.7 34.656ZM264.248 17.472H268.952L276.152 34.912L283.32 17.472H287.96V40H284.344V23.712L277.656 39.904H274.584L267.896 23.712V40H264.248V17.472Z" fill="white"/>
<path d="M354.4 21H351.782V5.512H354.4V11.87H361.748V5.512H364.366V21H361.748V14.246H354.4V21ZM374.252 13.564C374.252 12.9333 374.047 12.4493 373.636 12.112C373.24 11.76 372.712 11.584 372.052 11.584C370.864 11.584 370.124 12.0167 369.83 12.882H367.454C367.63 11.914 368.122 11.1147 368.928 10.484C369.75 9.83867 370.82 9.516 372.14 9.516C373.534 9.516 374.641 9.87533 375.462 10.594C376.298 11.3127 376.716 12.3173 376.716 13.608V21H374.384V19.724C373.563 20.7507 372.404 21.264 370.908 21.264C369.794 21.264 368.862 20.9487 368.114 20.318C367.381 19.6727 367.014 18.8147 367.014 17.744C367.014 16.6293 367.41 15.764 368.202 15.148C369.009 14.5173 370.116 14.202 371.524 14.202H374.252V13.564ZM371.458 19.218C372.236 19.218 372.896 18.998 373.438 18.558C373.981 18.1033 374.252 17.5093 374.252 16.776V16.094H371.7C371.04 16.094 370.512 16.2333 370.116 16.512C369.735 16.776 369.544 17.1573 369.544 17.656C369.544 18.1547 369.72 18.5433 370.072 18.822C370.424 19.086 370.886 19.218 371.458 19.218ZM384.481 19.042C385.214 19.042 385.779 18.8587 386.175 18.492C386.585 18.1253 386.857 17.6853 386.989 17.172H389.431C389.299 18.316 388.785 19.284 387.891 20.076C386.996 20.868 385.852 21.264 384.459 21.264C382.831 21.264 381.518 20.7213 380.521 19.636C379.523 18.536 379.025 17.1207 379.025 15.39C379.025 13.674 379.516 12.266 380.499 11.166C381.496 10.066 382.816 9.516 384.459 9.516C385.881 9.516 387.025 9.91933 387.891 10.726C388.756 11.518 389.262 12.464 389.409 13.564H386.967C386.805 13.0653 386.519 12.64 386.109 12.288C385.713 11.9213 385.163 11.738 384.459 11.738C383.579 11.738 382.875 12.0753 382.347 12.75C381.833 13.4247 381.577 14.3047 381.577 15.39C381.577 16.49 381.841 17.3773 382.369 18.052C382.897 18.712 383.601 19.042 384.481 19.042ZM390.642 11.98V9.78H400.322V11.98H396.736V21H394.228V11.98H390.642ZM408.375 9.516C409.768 9.516 410.942 10.0367 411.895 11.078C412.863 12.1193 413.347 13.5567 413.347 15.39C413.347 17.2233 412.856 18.6607 411.873 19.702C410.905 20.7433 409.717 21.264 408.309 21.264C407.532 21.264 406.85 21.1247 406.263 20.846C405.691 20.5527 405.266 20.186 404.987 19.746V25.202H402.479V9.78H404.899V11.232C405.603 10.088 406.762 9.516 408.375 9.516ZM407.891 19.042C408.771 19.042 409.475 18.712 410.003 18.052C410.546 17.3773 410.817 16.49 410.817 15.39C410.817 14.3047 410.546 13.4247 410.003 12.75C409.475 12.0753 408.771 11.738 407.891 11.738C406.996 11.738 406.278 12.068 405.735 12.728C405.192 13.3733 404.921 14.246 404.921 15.346V15.434C404.921 16.534 405.192 17.414 405.735 18.074C406.278 18.7193 406.996 19.042 407.891 19.042ZM422.313 13.564C422.313 12.9333 422.107 12.4493 421.697 12.112C421.301 11.76 420.773 11.584 420.113 11.584C418.925 11.584 418.184 12.0167 417.891 12.882H415.515C415.691 11.914 416.182 11.1147 416.989 10.484C417.81 9.83867 418.881 9.516 420.201 9.516C421.594 9.516 422.701 9.87533 423.523 10.594C424.359 11.3127 424.777 12.3173 424.777 13.608V21H422.445V19.724C421.623 20.7507 420.465 21.264 418.969 21.264C417.854 21.264 416.923 20.9487 416.175 20.318C415.441 19.6727 415.075 18.8147 415.075 17.744C415.075 16.6293 415.471 15.764 416.263 15.148C417.069 14.5173 418.177 14.202 419.585 14.202H422.313V13.564ZM419.519 19.218C420.296 19.218 420.956 18.998 421.499 18.558C422.041 18.1033 422.313 17.5093 422.313 16.776V16.094H419.761C419.101 16.094 418.573 16.2333 418.177 16.512C417.795 16.776 417.605 17.1573 417.605 17.656C417.605 18.1547 417.781 18.5433 418.133 18.822C418.485 19.086 418.947 19.218 419.519 19.218ZM437.689 9.78V21H435.225V13.542L430.143 21H427.723V9.78H430.187V17.26L435.269 9.78H437.689ZM440.721 21V9.78H445.759C446.962 9.78 447.878 10.0513 448.509 10.594C449.14 11.1367 449.455 11.8333 449.455 12.684C449.455 13.3 449.301 13.8133 448.993 14.224C448.7 14.62 448.333 14.906 447.893 15.082C448.465 15.2433 448.942 15.5587 449.323 16.028C449.719 16.4973 449.917 17.0913 449.917 17.81C449.917 18.7487 449.565 19.5187 448.861 20.12C448.172 20.7067 447.211 21 445.979 21H440.721ZM445.671 16.204H443.185V19.064H445.671C446.228 19.064 446.654 18.9393 446.947 18.69C447.255 18.426 447.409 18.0667 447.409 17.612C447.409 16.6733 446.83 16.204 445.671 16.204ZM445.451 11.716H443.185V14.312H445.451C445.935 14.312 446.309 14.1947 446.573 13.96C446.852 13.7253 446.991 13.4027 446.991 12.992C446.991 12.1413 446.478 11.716 445.451 11.716ZM458.901 13.564C458.901 12.9333 458.695 12.4493 458.285 12.112C457.889 11.76 457.361 11.584 456.701 11.584C455.513 11.584 454.772 12.0167 454.479 12.882H452.103C452.279 11.914 452.77 11.1147 453.577 10.484C454.398 9.83867 455.469 9.516 456.789 9.516C458.182 9.516 459.289 9.87533 460.111 10.594C460.947 11.3127 461.365 12.3173 461.365 13.608V21H459.033V19.724C458.211 20.7507 457.053 21.264 455.557 21.264C454.442 21.264 453.511 20.9487 452.763 20.318C452.029 19.6727 451.663 18.8147 451.663 17.744C451.663 16.6293 452.059 15.764 452.851 15.148C453.657 14.5173 454.765 14.202 456.173 14.202H458.901V13.564ZM456.107 19.218C456.884 19.218 457.544 18.998 458.087 18.558C458.629 18.1033 458.901 17.5093 458.901 16.776V16.094H456.349C455.689 16.094 455.161 16.2333 454.765 16.512C454.383 16.776 454.193 17.1573 454.193 17.656C454.193 18.1547 454.369 18.5433 454.721 18.822C455.073 19.086 455.535 19.218 456.107 19.218ZM474.145 16.116H466.247V16.16C466.247 17.0253 466.526 17.744 467.083 18.316C467.64 18.888 468.366 19.174 469.261 19.174C469.877 19.174 470.383 19.0493 470.779 18.8C471.19 18.536 471.446 18.2573 471.549 17.964H474.013C473.837 18.8147 473.338 19.5773 472.517 20.252C471.71 20.9267 470.61 21.264 469.217 21.264C467.545 21.264 466.203 20.7433 465.191 19.702C464.179 18.646 463.673 17.216 463.673 15.412C463.673 13.608 464.172 12.178 465.169 11.122C466.166 10.0513 467.464 9.516 469.063 9.516C470.603 9.516 471.835 10.022 472.759 11.034C473.683 12.046 474.145 13.3953 474.145 15.082V16.116ZM469.041 11.606C468.249 11.606 467.604 11.8407 467.105 12.31C466.621 12.7793 466.342 13.4173 466.269 14.224H471.637C471.608 13.4027 471.358 12.7647 470.889 12.31C470.434 11.8407 469.818 11.606 469.041 11.606ZM476.536 9.78H479.704L483.268 17.92L486.832 9.78H489.956V21H487.536V13.322L484.17 20.956H482.322L478.956 13.344V21H476.536V9.78ZM495.479 9.78V13.19H497.723C498.969 13.19 499.967 13.5567 500.715 14.29C501.463 15.0087 501.837 15.9327 501.837 17.062C501.837 18.206 501.455 19.152 500.693 19.9C499.945 20.6333 498.955 21 497.723 21H492.993V9.78H495.479ZM505.753 9.78V21H503.267V9.78H505.753ZM497.415 15.302H495.479V18.91H497.415C498.016 18.91 498.485 18.734 498.823 18.382C499.175 18.03 499.351 17.59 499.351 17.062C499.351 16.534 499.175 16.1087 498.823 15.786C498.485 15.4633 498.016 15.302 497.415 15.302ZM518.75 9.78V21H516.286V13.542L511.204 21H508.784V9.78H511.248V17.26L516.33 9.78H518.75ZM512.084 4.698C512.084 5.226 512.23 5.666 512.524 6.018C512.817 6.37 513.235 6.546 513.778 6.546C514.32 6.546 514.738 6.37 515.032 6.018C515.325 5.666 515.472 5.226 515.472 4.698H517.496C517.466 5.798 517.114 6.678 516.44 7.338C515.78 7.998 514.892 8.328 513.778 8.328C512.663 8.328 511.768 7.998 511.094 7.338C510.434 6.678 510.089 5.798 510.06 4.698H512.084ZM531.391 19.042C532.124 19.042 532.689 18.8587 533.085 18.492C533.495 18.1253 533.767 17.6853 533.899 17.172H536.341C536.209 18.316 535.695 19.284 534.801 20.076C533.906 20.868 532.762 21.264 531.369 21.264C529.741 21.264 528.428 20.7213 527.431 19.636C526.433 18.536 525.935 17.1207 525.935 15.39C525.935 13.674 526.426 12.266 527.409 11.166C528.406 10.066 529.726 9.516 531.369 9.516C532.791 9.516 533.935 9.91933 534.801 10.726C535.666 11.518 536.172 12.464 536.319 13.564H533.877C533.715 13.0653 533.429 12.64 533.019 12.288C532.623 11.9213 532.073 11.738 531.369 11.738C530.489 11.738 529.785 12.0753 529.257 12.75C528.743 13.4247 528.487 14.3047 528.487 15.39C528.487 16.49 528.751 17.3773 529.279 18.052C529.807 18.712 530.511 19.042 531.391 19.042ZM548.613 9.78V21H546.149V13.542L541.067 21H538.647V9.78H541.111V17.26L546.193 9.78H548.613ZM551.645 9.78H554.813L558.377 17.92L561.941 9.78H565.065V21H562.645V13.322L559.279 20.956H557.431L554.065 13.344V21H551.645V9.78ZM575.406 9.78H578.112L572.062 25.202H569.378L571.116 20.802L566.804 9.78H569.51L572.458 17.81L575.406 9.78ZM578.193 21.044V18.844H578.545C579.161 18.844 579.594 18.6753 579.843 18.338C580.107 17.986 580.276 17.3773 580.349 16.512L580.899 9.78H589.149V21H586.641V11.98H583.099L582.725 16.688C582.608 18.228 582.241 19.3427 581.625 20.032C581.024 20.7067 580.107 21.044 578.875 21.044H578.193ZM600.721 21H598.235V17.37H596.541L593.967 21H591.151L593.989 16.996C593.3 16.688 592.757 16.2333 592.361 15.632C591.98 15.016 591.789 14.3267 591.789 13.564C591.789 12.464 592.149 11.562 592.867 10.858C593.601 10.1393 594.62 9.78 595.925 9.78H600.721V21ZM594.803 12.31C594.451 12.6327 594.275 13.058 594.275 13.586C594.275 14.114 594.451 14.5393 594.803 14.862C595.155 15.1847 595.632 15.346 596.233 15.346H598.235V11.826H596.233C595.632 11.826 595.155 11.9873 594.803 12.31ZM602.886 11.98V9.78H612.566V11.98H608.98V21H606.472V11.98H602.886ZM615.173 11.144C616.2 10.0587 617.535 9.516 619.177 9.516C620.82 9.516 622.147 10.0587 623.159 11.144C624.186 12.2293 624.699 13.6447 624.699 15.39C624.699 17.1353 624.186 18.5507 623.159 19.636C622.147 20.7213 620.82 21.264 619.177 21.264C617.535 21.264 616.2 20.7213 615.173 19.636C614.161 18.5507 613.655 17.1353 613.655 15.39C613.655 13.6447 614.161 12.2293 615.173 11.144ZM616.999 18.03C617.542 18.7047 618.268 19.042 619.177 19.042C620.087 19.042 620.805 18.7047 621.333 18.03C621.876 17.3553 622.147 16.4753 622.147 15.39C622.147 14.3047 621.876 13.4247 621.333 12.75C620.805 12.0753 620.087 11.738 619.177 11.738C618.268 11.738 617.542 12.0753 616.999 12.75C616.471 13.4247 616.207 14.3047 616.207 15.39C616.207 16.4753 616.471 17.3553 616.999 18.03ZM632.994 9.516C634.387 9.516 635.561 10.0367 636.514 11.078C637.482 12.1193 637.966 13.5567 637.966 15.39C637.966 17.2233 637.475 18.6607 636.492 19.702C635.524 20.7433 634.336 21.264 632.928 21.264C632.151 21.264 631.469 21.1247 630.882 20.846C630.31 20.5527 629.885 20.186 629.606 19.746V25.202H627.098V9.78H629.518V11.232C630.222 10.088 631.381 9.516 632.994 9.516ZM632.51 19.042C633.39 19.042 634.094 18.712 634.622 18.052C635.165 17.3773 635.436 16.49 635.436 15.39C635.436 14.3047 635.165 13.4247 634.622 12.75C634.094 12.0753 633.39 11.738 632.51 11.738C631.615 11.738 630.897 12.068 630.354 12.728C629.811 13.3733 629.54 14.246 629.54 15.346V15.434C629.54 16.534 629.811 17.414 630.354 18.074C630.897 18.7193 631.615 19.042 632.51 19.042Z" fill="#A30236"/>
<path d="M650.776 9.67C652.14 9.67 653.313 10.176 654.296 11.188C655.279 12.2 655.77 13.6227 655.77 15.456C655.77 17.304 655.271 18.734 654.274 19.746C653.277 20.7433 652.089 21.242 650.71 21.242C649.874 21.242 649.155 21.088 648.554 20.78C647.953 20.472 647.505 20.0907 647.212 19.636V25.202H645.32V9.912H647.146V11.496C647.439 10.9827 647.894 10.55 648.51 10.198C649.126 9.846 649.881 9.67 650.776 9.67ZM650.534 19.526C651.517 19.526 652.309 19.152 652.91 18.404C653.526 17.656 653.834 16.6733 653.834 15.456C653.834 14.2387 653.526 13.256 652.91 12.508C652.309 11.76 651.517 11.386 650.534 11.386C649.507 11.386 648.686 11.7527 648.07 12.486C647.454 13.2047 647.146 14.18 647.146 15.412V15.5C647.146 16.732 647.454 17.7147 648.07 18.448C648.686 19.1667 649.507 19.526 650.534 19.526ZM665.026 13.652C665.026 12.904 664.791 12.332 664.322 11.936C663.867 11.54 663.266 11.342 662.518 11.342C661.183 11.342 660.333 11.8333 659.966 12.816H658.14C658.331 11.9067 658.807 11.1587 659.57 10.572C660.347 9.97067 661.345 9.67 662.562 9.67C663.867 9.67 664.916 10.0293 665.708 10.748C666.5 11.452 666.896 12.42 666.896 13.652V21H665.114V19.68C664.278 20.7213 663.09 21.242 661.55 21.242C660.45 21.242 659.533 20.934 658.8 20.318C658.081 19.6873 657.722 18.8587 657.722 17.832C657.722 16.7613 658.111 15.9253 658.888 15.324C659.665 14.708 660.729 14.4 662.078 14.4H665.026V13.652ZM661.792 19.592C662.701 19.592 663.464 19.3353 664.08 18.822C664.711 18.3087 665.026 17.6413 665.026 16.82V16.006H662.188C661.411 16.006 660.787 16.16 660.318 16.468C659.863 16.776 659.636 17.2233 659.636 17.81C659.636 18.382 659.834 18.822 660.23 19.13C660.626 19.438 661.147 19.592 661.792 19.592ZM669.541 12.882C669.659 11.87 670.128 11.0853 670.949 10.528C671.785 9.956 672.768 9.67 673.897 9.67C675.027 9.67 675.958 9.96333 676.691 10.55C677.425 11.122 677.791 11.8847 677.791 12.838C677.791 13.9967 677.263 14.7887 676.207 15.214C676.735 15.346 677.205 15.6247 677.615 16.05C678.041 16.4607 678.253 17.0473 678.253 17.81C678.253 18.8513 677.835 19.6873 676.999 20.318C676.178 20.934 675.137 21.242 673.875 21.242C672.658 21.242 671.624 20.9487 670.773 20.362C669.937 19.7753 669.453 18.932 669.321 17.832H671.191C671.323 18.3893 671.631 18.822 672.115 19.13C672.599 19.4233 673.201 19.57 673.919 19.57C674.667 19.57 675.261 19.416 675.701 19.108C676.141 18.7853 676.361 18.3453 676.361 17.788C676.361 16.7027 675.555 16.16 673.941 16.16H672.203V14.532H673.831C674.506 14.532 675.019 14.3927 675.371 14.114C675.738 13.8207 675.921 13.4173 675.921 12.904C675.921 12.42 675.731 12.0387 675.349 11.76C674.983 11.4813 674.477 11.342 673.831 11.342C673.157 11.342 672.607 11.4887 672.181 11.782C671.771 12.0607 671.507 12.4273 671.389 12.882H669.541ZM680.898 21V9.912H685.606C686.735 9.912 687.593 10.1833 688.18 10.726C688.781 11.254 689.082 11.936 689.082 12.772C689.082 13.3733 688.943 13.8793 688.664 14.29C688.385 14.7007 688.041 14.9867 687.63 15.148C688.173 15.2947 688.627 15.6027 688.994 16.072C689.375 16.5413 689.566 17.1353 689.566 17.854C689.566 18.778 689.236 19.5333 688.576 20.12C687.931 20.7067 687.029 21 685.87 21H680.898ZM685.65 16.116H682.768V19.372H685.65C686.999 19.372 687.674 18.8147 687.674 17.7C687.674 16.644 686.999 16.116 685.65 16.116ZM685.43 11.54H682.768V14.51H685.43C686.002 14.51 686.442 14.378 686.75 14.114C687.058 13.8353 687.212 13.4613 687.212 12.992C687.212 12.024 686.618 11.54 685.43 11.54ZM701.593 9.912V21H699.723V12.838L694.069 21H692.199V9.912H694.069V18.096L699.723 9.912H701.593ZM703.95 11.606V9.912H713.3V11.606H709.56V21H707.668V11.606H703.95ZM725.054 9.912V21H723.184V12.838L717.53 21H715.66V9.912H717.53V18.096L723.184 9.912H725.054ZM736.189 21H734.297V17.238H732.317L729.457 21H727.257L730.293 17.018C729.545 16.754 728.951 16.314 728.511 15.698C728.086 15.0673 727.873 14.356 727.873 13.564C727.873 12.508 728.218 11.6353 728.907 10.946C729.611 10.2567 730.572 9.912 731.789 9.912H736.189V21ZM729.765 13.564C729.765 14.1653 729.963 14.6567 730.359 15.038C730.77 15.4047 731.32 15.588 732.009 15.588H734.297V11.562H732.009C731.32 11.562 730.77 11.7527 730.359 12.134C729.963 12.5007 729.765 12.9773 729.765 13.564ZM749.6 5.006C747.459 7.98333 746.388 11.232 746.388 14.752C746.388 18.2573 747.459 21.4987 749.6 24.476H747.686C746.777 23.332 746.007 21.9167 745.376 20.23C744.745 18.5433 744.43 16.7173 744.43 14.752C744.43 12.7867 744.745 10.9607 745.376 9.274C746.007 7.57267 746.777 6.15 747.686 5.006H749.6ZM750.958 11.606V9.912H760.308V11.606H756.568V21H754.676V11.606H750.958ZM768.124 9.67C769.488 9.67 770.661 10.176 771.644 11.188C772.626 12.2 773.118 13.6227 773.118 15.456C773.118 17.304 772.619 18.734 771.622 19.746C770.624 20.7433 769.436 21.242 768.058 21.242C767.222 21.242 766.503 21.088 765.902 20.78C765.3 20.472 764.853 20.0907 764.56 19.636V25.202H762.668V9.912H764.494V11.496C764.787 10.9827 765.242 10.55 765.858 10.198C766.474 9.846 767.229 9.67 768.124 9.67ZM767.882 19.526C768.864 19.526 769.656 19.152 770.258 18.404C770.874 17.656 771.182 16.6733 771.182 15.456C771.182 14.2387 770.874 13.256 770.258 12.508C769.656 11.76 768.864 11.386 767.882 11.386C766.855 11.386 766.034 11.7527 765.418 12.486C764.802 13.2047 764.494 14.18 764.494 15.412V15.5C764.494 16.732 764.802 17.7147 765.418 18.448C766.034 19.1667 766.855 19.526 767.882 19.526ZM782.374 13.652C782.374 12.904 782.139 12.332 781.67 11.936C781.215 11.54 780.614 11.342 779.866 11.342C778.531 11.342 777.68 11.8333 777.314 12.816H775.488C775.678 11.9067 776.155 11.1587 776.918 10.572C777.695 9.97067 778.692 9.67 779.91 9.67C781.215 9.67 782.264 10.0293 783.056 10.748C783.848 11.452 784.244 12.42 784.244 13.652V21H782.462V19.68C781.626 20.7213 780.438 21.242 778.898 21.242C777.798 21.242 776.881 20.934 776.148 20.318C775.429 19.6873 775.07 18.8587 775.07 17.832C775.07 16.7613 775.458 15.9253 776.236 15.324C777.013 14.708 778.076 14.4 779.426 14.4H782.374V13.652ZM779.14 19.592C780.049 19.592 780.812 19.3353 781.428 18.822C782.058 18.3087 782.374 17.6413 782.374 16.82V16.006H779.536C778.758 16.006 778.135 16.16 777.666 16.468C777.211 16.776 776.984 17.2233 776.984 17.81C776.984 18.382 777.182 18.822 777.578 19.13C777.974 19.438 778.494 19.592 779.14 19.592ZM789.331 21H787.439V9.912H789.331V14.378H794.809V9.912H796.701V21H794.809V16.094H789.331V21ZM804.605 19.526C805.441 19.526 806.087 19.3207 806.541 18.91C806.996 18.4847 807.297 17.986 807.443 17.414H809.335C809.203 18.4553 808.705 19.3573 807.839 20.12C806.989 20.868 805.903 21.242 804.583 21.242C803.014 21.242 801.745 20.7067 800.777 19.636C799.824 18.5507 799.347 17.1573 799.347 15.456C799.347 13.7693 799.824 12.3833 800.777 11.298C801.745 10.2127 803.014 9.67 804.583 9.67C805.947 9.67 807.04 10.0513 807.861 10.814C808.683 11.5767 809.174 12.4567 809.335 13.454H807.443C807.267 12.8967 806.945 12.4127 806.475 12.002C806.006 11.5913 805.375 11.386 804.583 11.386C803.586 11.386 802.787 11.76 802.185 12.508C801.584 13.256 801.283 14.2387 801.283 15.456C801.283 16.6733 801.584 17.656 802.185 18.404C802.801 19.152 803.608 19.526 804.605 19.526ZM818.797 9.692C820.469 9.75067 821.84 10.308 822.911 11.364C823.996 12.4053 824.539 13.7693 824.539 15.456C824.539 17.1427 823.996 18.514 822.911 19.57C821.84 20.6113 820.469 21.1613 818.797 21.22V25.202H816.949V21.22C815.277 21.1613 813.898 20.6113 812.813 19.57C811.742 18.514 811.207 17.1427 811.207 15.456C811.207 13.7693 811.742 12.4053 812.813 11.364C813.898 10.308 815.277 9.75067 816.949 9.692V5.512H818.797V9.692ZM816.949 19.504V11.408C815.863 11.4373 814.954 11.8113 814.221 12.53C813.487 13.2487 813.121 14.224 813.121 15.456C813.121 16.688 813.487 17.6633 814.221 18.382C814.954 19.1007 815.863 19.4747 816.949 19.504ZM821.525 18.382C822.258 17.6633 822.625 16.688 822.625 15.456C822.625 14.224 822.258 13.2487 821.525 12.53C820.791 11.8113 819.882 11.4373 818.797 11.408V19.504C819.882 19.4747 820.791 19.1007 821.525 18.382ZM827.977 11.298C828.96 10.2127 830.25 9.67 831.849 9.67C833.448 9.67 834.731 10.2127 835.699 11.298C836.682 12.3687 837.173 13.7547 837.173 15.456C837.173 17.1573 836.682 18.5507 835.699 19.636C834.731 20.7067 833.448 21.242 831.849 21.242C830.25 21.242 828.96 20.7067 827.977 19.636C827.009 18.5507 826.525 17.1573 826.525 15.456C826.525 13.7547 827.009 12.3687 827.977 11.298ZM829.363 18.404C829.979 19.152 830.808 19.526 831.849 19.526C832.89 19.526 833.712 19.152 834.313 18.404C834.929 17.656 835.237 16.6733 835.237 15.456C835.237 14.2387 834.929 13.256 834.313 12.508C833.712 11.76 832.89 11.386 831.849 11.386C830.808 11.386 829.979 11.76 829.363 12.508C828.762 13.256 828.461 14.2387 828.461 15.456C828.461 16.6733 828.762 17.656 829.363 18.404ZM845.274 9.67C846.638 9.67 847.811 10.176 848.794 11.188C849.777 12.2 850.268 13.6227 850.268 15.456C850.268 17.304 849.769 18.734 848.772 19.746C847.775 20.7433 846.587 21.242 845.208 21.242C844.372 21.242 843.653 21.088 843.052 20.78C842.451 20.472 842.003 20.0907 841.71 19.636V25.202H839.818V9.912H841.644V11.496C841.937 10.9827 842.392 10.55 843.008 10.198C843.624 9.846 844.379 9.67 845.274 9.67ZM845.032 19.526C846.015 19.526 846.807 19.152 847.408 18.404C848.024 17.656 848.332 16.6733 848.332 15.456C848.332 14.2387 848.024 13.256 847.408 12.508C846.807 11.76 846.015 11.386 845.032 11.386C844.005 11.386 843.184 11.7527 842.568 12.486C841.952 13.2047 841.644 14.18 841.644 15.412V15.5C841.644 16.732 841.952 17.7147 842.568 18.448C843.184 19.1667 844.005 19.526 845.032 19.526ZM852.902 9.912H855.212L859.238 18.756L863.264 9.912H865.552V21H863.704V12.948L860.03 21H858.446L854.75 12.948V21H852.902V9.912ZM875.465 13.652C875.465 12.904 875.231 12.332 874.761 11.936C874.307 11.54 873.705 11.342 872.957 11.342C871.623 11.342 870.772 11.8333 870.405 12.816H868.579C868.77 11.9067 869.247 11.1587 870.009 10.572C870.787 9.97067 871.784 9.67 873.001 9.67C874.307 9.67 875.355 10.0293 876.147 10.748C876.939 11.452 877.335 12.42 877.335 13.652V21H875.553V19.68C874.717 20.7213 873.529 21.242 871.989 21.242C870.889 21.242 869.973 20.934 869.239 20.318C868.521 19.6873 868.161 18.8587 868.161 17.832C868.161 16.7613 868.55 15.9253 869.327 15.324C870.105 14.708 871.168 14.4 872.517 14.4H875.465V13.652ZM872.231 19.592C873.141 19.592 873.903 19.3353 874.519 18.822C875.15 18.3087 875.465 17.6413 875.465 16.82V16.006H872.627C871.85 16.006 871.227 16.16 870.757 16.468C870.303 16.776 870.075 17.2233 870.075 17.81C870.075 18.382 870.273 18.822 870.669 19.13C871.065 19.438 871.586 19.592 872.231 19.592ZM891.289 19.284V23.816H889.463V21H880.531V9.912H882.423V19.284H887.769V9.912H889.661V19.284H891.289ZM902.987 9.912V21H901.117V12.838L895.463 21H893.593V9.912H895.463V18.096L901.117 9.912H902.987ZM915.685 9.912V21H913.815V12.838L908.161 21H906.291V9.912H908.161V18.096L913.815 9.912H915.685ZM917.998 5.006H919.912C920.821 6.15 921.591 7.57267 922.222 9.274C922.853 10.9607 923.168 12.7867 923.168 14.752C923.168 16.7173 922.853 18.5433 922.222 20.23C921.591 21.9167 920.821 23.332 919.912 24.476H917.998C920.139 21.4987 921.21 18.2573 921.21 14.752C921.21 11.232 920.139 7.98333 917.998 5.006ZM359.042 34.912H361.088L355.016 50.202H352.97L354.686 45.868L350.33 34.912H352.376L355.72 43.558L359.042 34.912ZM364.95 46H363.058V34.912H364.95V39.378H370.428V34.912H372.32V46H370.428V41.094H364.95V46ZM385.021 34.912V46H383.151V37.838L377.497 46H375.627V34.912H377.497V43.096L383.151 34.912H385.021ZM388.324 46V34.912H393.032C394.161 34.912 395.019 35.1833 395.606 35.726C396.207 36.254 396.508 36.936 396.508 37.772C396.508 38.3733 396.368 38.8793 396.09 39.29C395.811 39.7007 395.466 39.9867 395.056 40.148C395.598 40.2947 396.053 40.6027 396.42 41.072C396.801 41.5413 396.992 42.1353 396.992 42.854C396.992 43.778 396.662 44.5333 396.002 45.12C395.356 45.7067 394.454 46 393.296 46H388.324ZM393.076 41.116H390.194V44.372H393.076C394.425 44.372 395.1 43.8147 395.1 42.7C395.1 41.644 394.425 41.116 393.076 41.116ZM392.856 36.54H390.194V39.51H392.856C393.428 39.51 393.868 39.378 394.176 39.114C394.484 38.8353 394.638 38.4613 394.638 37.992C394.638 37.024 394.044 36.54 392.856 36.54ZM409.019 41.028H400.945V41.072C400.945 42.0693 401.26 42.898 401.891 43.558C402.521 44.218 403.343 44.548 404.355 44.548C405.059 44.548 405.638 44.4013 406.093 44.108C406.562 43.8 406.855 43.4773 406.973 43.14H408.887C408.711 43.9173 408.234 44.6287 407.457 45.274C406.679 45.9193 405.638 46.242 404.333 46.242C402.719 46.242 401.421 45.7213 400.439 44.68C399.456 43.6387 398.965 42.2307 398.965 40.456C398.965 38.6813 399.449 37.2733 400.417 36.232C401.385 35.1907 402.639 34.67 404.179 34.67C405.66 34.67 406.833 35.1613 407.699 36.144C408.579 37.112 409.019 38.4173 409.019 40.06V41.028ZM404.135 36.364C403.225 36.364 402.485 36.6427 401.913 37.2C401.355 37.7573 401.04 38.498 400.967 39.422H407.105C407.061 38.4687 406.775 37.7207 406.247 37.178C405.733 36.6353 405.029 36.364 404.135 36.364ZM417.112 34.67C418.476 34.67 419.649 35.176 420.632 36.188C421.615 37.2 422.106 38.6227 422.106 40.456C422.106 42.304 421.607 43.734 420.61 44.746C419.613 45.7433 418.425 46.242 417.046 46.242C416.21 46.242 415.491 46.088 414.89 45.78C414.289 45.472 413.841 45.0907 413.548 44.636V50.202H411.656V34.912H413.482V36.496C413.775 35.9827 414.23 35.55 414.846 35.198C415.462 34.846 416.217 34.67 417.112 34.67ZM416.87 44.526C417.853 44.526 418.645 44.152 419.246 43.404C419.862 42.656 420.17 41.6733 420.17 40.456C420.17 39.2387 419.862 38.256 419.246 37.508C418.645 36.76 417.853 36.386 416.87 36.386C415.843 36.386 415.022 36.7527 414.406 37.486C413.79 38.2047 413.482 39.18 413.482 40.412V40.5C413.482 41.732 413.79 42.7147 414.406 43.448C415.022 44.1667 415.843 44.526 416.87 44.526ZM429.338 44.526C430.174 44.526 430.819 44.3207 431.274 43.91C431.729 43.4847 432.029 42.986 432.176 42.414H434.068C433.936 43.4553 433.437 44.3573 432.572 45.12C431.721 45.868 430.636 46.242 429.316 46.242C427.747 46.242 426.478 45.7067 425.51 44.636C424.557 43.5507 424.08 42.1573 424.08 40.456C424.08 38.7693 424.557 37.3833 425.51 36.298C426.478 35.2127 427.747 34.67 429.316 34.67C430.68 34.67 431.773 35.0513 432.594 35.814C433.415 36.5767 433.907 37.4567 434.068 38.454H432.176C432 37.8967 431.677 37.4127 431.208 37.002C430.739 36.5913 430.108 36.386 429.316 36.386C428.319 36.386 427.519 36.76 426.918 37.508C426.317 38.256 426.016 39.2387 426.016 40.456C426.016 41.6733 426.317 42.656 426.918 43.404C427.534 44.152 428.341 44.526 429.338 44.526ZM445.993 34.912V46H444.123V37.838L438.469 46H436.599V34.912H438.469V43.096L444.123 34.912H445.993ZM448.35 36.606V34.912H457.7V36.606H453.96V46H452.068V36.606H448.35ZM468.896 41.028H460.822V41.072C460.822 42.0693 461.137 42.898 461.768 43.558C462.398 44.218 463.22 44.548 464.232 44.548C464.936 44.548 465.515 44.4013 465.97 44.108C466.439 43.8 466.732 43.4773 466.85 43.14H468.764C468.588 43.9173 468.111 44.6287 467.334 45.274C466.556 45.9193 465.515 46.242 464.21 46.242C462.596 46.242 461.298 45.7213 460.316 44.68C459.333 43.6387 458.842 42.2307 458.842 40.456C458.842 38.6813 459.326 37.2733 460.294 36.232C461.262 35.1907 462.516 34.67 464.056 34.67C465.537 34.67 466.71 35.1613 467.576 36.144C468.456 37.112 468.896 38.4173 468.896 40.06V41.028ZM464.012 36.364C463.102 36.364 462.362 36.6427 461.79 37.2C461.232 37.7573 460.917 38.498 460.844 39.422H466.982C466.938 38.4687 466.652 37.7207 466.124 37.178C465.61 36.6353 464.906 36.364 464.012 36.364ZM470.157 36.606V34.912H479.507V36.606H475.767V46H473.875V36.606H470.157ZM488.274 38.652C488.274 37.904 488.039 37.332 487.57 36.936C487.115 36.54 486.514 36.342 485.766 36.342C484.431 36.342 483.581 36.8333 483.214 37.816H481.388C481.579 36.9067 482.055 36.1587 482.818 35.572C483.595 34.9707 484.593 34.67 485.81 34.67C487.115 34.67 488.164 35.0293 488.956 35.748C489.748 36.452 490.144 37.42 490.144 38.652V46H488.362V44.68C487.526 45.7213 486.338 46.242 484.798 46.242C483.698 46.242 482.781 45.934 482.048 45.318C481.329 44.6873 480.97 43.8587 480.97 42.832C480.97 41.7613 481.359 40.9253 482.136 40.324C482.913 39.708 483.977 39.4 485.326 39.4H488.274V38.652ZM485.04 44.592C485.949 44.592 486.712 44.3353 487.328 43.822C487.959 43.3087 488.274 42.6413 488.274 41.82V41.006H485.436C484.659 41.006 484.035 41.16 483.566 41.468C483.111 41.776 482.884 42.2233 482.884 42.81C482.884 43.382 483.082 43.822 483.478 44.13C483.874 44.438 484.395 44.592 485.04 44.592ZM503.453 30.006C501.312 32.9833 500.241 36.232 500.241 39.752C500.241 43.2573 501.312 46.4987 503.453 49.476H501.539C500.63 48.332 499.86 46.9167 499.229 45.23C498.599 43.5433 498.283 41.7173 498.283 39.752C498.283 37.7867 498.599 35.9607 499.229 34.274C499.86 32.5727 500.63 31.15 501.539 30.006H503.453ZM512.473 34.692C514.145 34.7507 515.516 35.308 516.587 36.364C517.672 37.4053 518.215 38.7693 518.215 40.456C518.215 42.1427 517.672 43.514 516.587 44.57C515.516 45.6113 514.145 46.1613 512.473 46.22V50.202H510.625V46.22C508.953 46.1613 507.574 45.6113 506.489 44.57C505.418 43.514 504.883 42.1427 504.883 40.456C504.883 38.7693 505.418 37.4053 506.489 36.364C507.574 35.308 508.953 34.7507 510.625 34.692V30.512H512.473V34.692ZM510.625 44.504V36.408C509.539 36.4373 508.63 36.8113 507.897 37.53C507.163 38.2487 506.797 39.224 506.797 40.456C506.797 41.688 507.163 42.6633 507.897 43.382C508.63 44.1007 509.539 44.4747 510.625 44.504ZM515.201 43.382C515.934 42.6633 516.301 41.688 516.301 40.456C516.301 39.224 515.934 38.2487 515.201 37.53C514.467 36.8113 513.558 36.4373 512.473 36.408V44.504C513.558 44.4747 514.467 44.1007 515.201 43.382ZM530.255 34.912V46H528.385V37.838L522.731 46H520.861V34.912H522.731V43.096L528.385 34.912H530.255ZM532.238 46.044V44.328H532.546C533.221 44.328 533.69 44.1373 533.954 43.756C534.233 43.3747 534.409 42.6927 534.482 41.71L535.054 34.912H542.71V46H540.818V36.606H536.748L536.308 41.842C536.191 43.338 535.854 44.416 535.296 45.076C534.754 45.7213 533.91 46.044 532.766 46.044H532.238ZM555.413 34.912V46H553.543V37.838L547.889 46H546.019V34.912H547.889V43.096L553.543 34.912H555.413ZM565.338 38.652C565.338 37.904 565.104 37.332 564.634 36.936C564.18 36.54 563.578 36.342 562.83 36.342C561.496 36.342 560.645 36.8333 560.278 37.816H558.452C558.643 36.9067 559.12 36.1587 559.882 35.572C560.66 34.9707 561.657 34.67 562.874 34.67C564.18 34.67 565.228 35.0293 566.02 35.748C566.812 36.452 567.208 37.42 567.208 38.652V46H565.426V44.68C564.59 45.7213 563.402 46.242 561.862 46.242C560.762 46.242 559.846 45.934 559.112 45.318C558.394 44.6873 558.034 43.8587 558.034 42.832C558.034 41.7613 558.423 40.9253 559.2 40.324C559.978 39.708 561.041 39.4 562.39 39.4H565.338V38.652ZM562.104 44.592C563.014 44.592 563.776 44.3353 564.392 43.822C565.023 43.3087 565.338 42.6413 565.338 41.82V41.006H562.5C561.723 41.006 561.1 41.16 560.63 41.468C560.176 41.776 559.948 42.2233 559.948 42.81C559.948 43.382 560.146 43.822 560.542 44.13C560.938 44.438 561.459 44.592 562.104 44.592ZM569.084 46.044V44.328H569.392C570.067 44.328 570.536 44.1373 570.8 43.756C571.079 43.3747 571.255 42.6927 571.328 41.71L571.9 34.912H579.556V46H577.664V36.606H573.594L573.154 41.842C573.037 43.338 572.699 44.416 572.142 45.076C571.599 45.7213 570.756 46.044 569.612 46.044H569.084ZM589.487 38.652C589.487 37.904 589.252 37.332 588.783 36.936C588.328 36.54 587.727 36.342 586.979 36.342C585.644 36.342 584.794 36.8333 584.427 37.816H582.601C582.792 36.9067 583.268 36.1587 584.031 35.572C584.808 34.9707 585.806 34.67 587.023 34.67C588.328 34.67 589.377 35.0293 590.169 35.748C590.961 36.452 591.357 37.42 591.357 38.652V46H589.575V44.68C588.739 45.7213 587.551 46.242 586.011 46.242C584.911 46.242 583.994 45.934 583.261 45.318C582.542 44.6873 582.183 43.8587 582.183 42.832C582.183 41.7613 582.572 40.9253 583.349 40.324C584.126 39.708 585.19 39.4 586.539 39.4H589.487V38.652ZM586.253 44.592C587.162 44.592 587.925 44.3353 588.541 43.822C589.172 43.3087 589.487 42.6413 589.487 41.82V41.006H586.649C585.872 41.006 585.248 41.16 584.779 41.468C584.324 41.776 584.097 42.2233 584.097 42.81C584.097 43.382 584.295 43.822 584.691 44.13C585.087 44.438 585.608 44.592 586.253 44.592ZM593.562 30.006H595.476C596.386 31.15 597.156 32.5727 597.786 34.274C598.417 35.9607 598.732 37.7867 598.732 39.752C598.732 41.7173 598.417 43.5433 597.786 45.23C597.156 46.9167 596.386 48.332 595.476 49.476H593.562C595.704 46.4987 596.774 43.2573 596.774 39.752C596.774 36.232 595.704 32.9833 593.562 30.006ZM617.948 44.284V48.816H616.122V46H607.476V48.816H605.65V44.284H606.574C607.293 43.8733 607.74 42.6047 607.916 40.478L608.356 34.912H616.32V44.284H617.948ZM609.742 40.522C609.684 41.182 609.632 41.688 609.588 42.04C609.544 42.392 609.449 42.7953 609.302 43.25C609.156 43.69 608.972 44.0347 608.752 44.284H614.428V36.606H610.05L609.742 40.522ZM619.143 46.044V44.328H619.451C620.125 44.328 620.595 44.1373 620.859 43.756C621.137 43.3747 621.313 42.6927 621.387 41.71L621.959 34.912H629.615V46H627.723V36.606H623.653L623.213 41.842C623.095 43.338 622.758 44.416 622.201 45.076C621.658 45.7213 620.815 46.044 619.671 46.044H619.143ZM640.755 46H638.863V42.238H636.883L634.023 46H631.823L634.859 42.018C634.111 41.754 633.517 41.314 633.077 40.698C632.652 40.0673 632.439 39.356 632.439 38.564C632.439 37.508 632.784 36.6353 633.473 35.946C634.177 35.2567 635.138 34.912 636.355 34.912H640.755V46ZM634.331 38.564C634.331 39.1653 634.529 39.6567 634.925 40.038C635.336 40.4047 635.886 40.588 636.575 40.588H638.863V36.562H636.575C635.886 36.562 635.336 36.7527 634.925 37.134C634.529 37.5007 634.331 37.9773 634.331 38.564ZM644.338 43.954C644.602 43.69 644.925 43.558 645.306 43.558C645.688 43.558 646.01 43.69 646.274 43.954C646.538 44.2033 646.67 44.5187 646.67 44.9C646.67 45.2813 646.538 45.604 646.274 45.868C646.01 46.1173 645.688 46.242 645.306 46.242C644.925 46.242 644.602 46.1173 644.338 45.868C644.074 45.604 643.942 45.2813 643.942 44.9C643.942 44.5187 644.074 44.2033 644.338 43.954ZM644.338 35.638C644.602 35.374 644.925 35.242 645.306 35.242C645.688 35.242 646.01 35.374 646.274 35.638C646.538 35.8873 646.67 36.2027 646.67 36.584C646.67 36.9653 646.538 37.288 646.274 37.552C646.01 37.8013 645.688 37.926 645.306 37.926C644.925 37.926 644.602 37.8013 644.338 37.552C644.074 37.288 643.942 36.9653 643.942 36.584C643.942 36.2027 644.074 35.8873 644.338 35.638Z" fill="black"/>
</svg>
