<svg width="76" height="73" viewBox="0 0 76 73" fill="none" xmlns="http://www.w3.org/2000/svg">
<path fill-rule="evenodd" clip-rule="evenodd" d="M18.2516 6.17912C17.5506 7.50247 16.1678 8.40288 14.5766 8.40288C12.2768 8.40288 10.4123 6.52183 10.4123 4.20144C10.4123 1.88105 12.2768 0 14.5766 0C16.8764 0 18.7408 1.8809 18.7409 4.20116C18.85 4.20117 18.961 4.21862 19.0701 4.25534L28.1444 7.30708C29.096 6.05735 30.5922 5.2518 32.2749 5.2518C35.1497 5.2518 37.4802 7.60311 37.4802 10.5036C37.4802 12.8552 35.9484 14.8457 33.8365 15.515V24.1848C40.134 24.0938 46.5927 24.237 52.479 24.6178L56.2196 18.0992V3.15108C56.2196 2.57098 56.6857 2.10072 57.2606 2.10072C57.8356 2.10072 58.3017 2.57098 58.3017 3.15108V18.3813C58.3017 18.5661 58.2534 18.7476 58.1616 18.9076L54.7907 24.782C55.522 24.8388 56.2424 24.8994 56.9503 24.9639C62.8556 25.5022 67.9708 26.3178 71.3373 27.4401C72.9892 27.9908 74.3885 28.6675 75.2059 29.5522C75.635 30.0166 75.954 30.5934 75.9955 31.2752C76.0062 31.4519 75.9977 31.625 75.9722 31.794C75.9903 31.8717 75.9999 31.9527 75.9999 32.036V68.7986C75.9999 69.183 75.7918 69.5367 75.4573 69.7207C70.7186 72.3277 67.3724 72.7796 62.5125 72.999C62.2286 73.0118 61.9519 72.9069 61.7465 72.7088C61.5411 72.5106 61.4249 72.2364 61.4249 71.9496V64.4603C43.2657 61.9125 33.2284 61.6475 15.0972 64.4472V71.9496C15.0972 72.2314 14.9849 72.5014 14.7857 72.6989C14.5865 72.8964 14.317 73.0048 14.0377 72.9998C8.62082 72.9033 4.69422 71.6537 0.43976 68.6045C0.164889 68.4075 0.00160216 68.0884 0.00160216 67.7482V31.5108C0.00160216 31.449 0.00688211 31.3885 0.0170121 31.3297C-0.0159811 31.0615 -0.00222128 30.7825 0.0691573 30.4941C0.313844 29.5056 1.15701 28.8091 2.04939 28.3064C3.88596 27.2718 6.98911 26.4769 10.7681 25.8656C11.3358 25.7738 11.8698 26.1637 11.9608 26.7364C12.0518 27.3092 11.6654 27.848 11.0977 27.9398C7.32852 28.5495 4.55105 29.3031 3.06445 30.1406C2.29525 30.5739 2.11619 30.8943 2.08926 31.0031C2.08528 31.0171 2.02217 31.2392 2.56215 31.7456C4.11863 33.2055 6.93202 34.2191 9.53055 34.8637C10.7994 35.1784 11.9633 35.3928 12.8103 35.5283C13.2332 35.596 13.5755 35.6439 13.8106 35.6746L13.8292 35.677L13.8413 35.7346C13.9106 35.7199 13.9824 35.7122 14.0561 35.7122C14.09 35.7122 14.1236 35.7139 14.1567 35.7171L14.1466 35.7159L14.0791 35.7081C14.022 35.7014 13.9377 35.6911 13.8292 35.677L11.9608 26.7364L14.1662 35.718C14.2669 35.7287 14.3634 35.7539 14.4534 35.7914C14.5996 35.8523 14.728 35.9453 14.8309 36.061C15.0004 36.2517 15.1006 36.5039 15.0972 36.7748V62.3222C33.1672 59.5533 43.3822 59.8203 61.4249 62.3394V58.8201C61.4249 58.24 61.891 57.7698 62.466 57.7698C63.041 57.7698 63.5071 58.24 63.5071 58.8201V70.8451C67.4127 70.6203 70.1907 70.1281 73.9178 68.1684V34.5968C73.3046 35.0523 72.6218 35.4326 71.9235 35.752C70.5692 36.3716 69.0674 36.8022 67.6886 37.1026C66.3052 37.404 65.0163 37.5807 64.075 37.6822C63.8685 37.7045 63.6784 37.7232 63.5071 37.7388V51.4676C63.5071 52.0477 63.041 52.518 62.466 52.518C61.891 52.518 61.4249 52.0477 61.4249 51.4676V36.7626C61.4249 36.1968 61.8683 35.7356 62.4235 35.7131L62.4402 35.7123L62.5118 35.7083C62.5759 35.7046 62.6722 35.6986 62.797 35.6896C63.0465 35.6715 63.409 35.6414 63.8537 35.5934C64.745 35.4973 65.9575 35.3306 67.249 35.0492C68.5451 34.7668 69.8916 34.375 71.0637 33.8388C72.2484 33.2969 73.1684 32.6465 73.7124 31.8953C73.9079 31.6253 73.9213 31.4702 73.9172 31.4039C73.9131 31.3369 73.8815 31.1996 73.6829 30.9846C73.2448 30.5105 72.2803 29.9669 70.6841 29.4348C67.5544 28.3914 62.6362 27.5915 56.763 27.0561C55.744 26.9632 54.6986 26.8785 53.6316 26.8019L46.7098 38.8644C46.6139 39.0315 46.4794 39.1619 46.3243 39.2509C47.0242 40.3512 47.5088 41.5886 47.7389 42.8972C48.1623 45.305 47.6947 47.7858 46.4247 49.8687C45.1547 51.9515 43.1709 53.4914 40.8499 54.1958C38.8581 54.8003 36.737 54.7536 34.7862 54.077C34.2498 53.891 34.0277 53.2693 34.2667 52.7503C34.5056 52.2314 35.1152 52.0133 35.6564 52.1845C37.1456 52.6556 38.7487 52.6696 40.2582 52.2115C42.0972 51.6533 43.6691 50.4332 44.6753 48.7829C45.6815 47.1326 46.0521 45.167 45.7166 43.2592C45.3811 41.3514 44.3629 39.6343 42.8553 38.434C41.3478 37.2337 39.4559 36.6337 37.5388 36.748C35.6217 36.8622 33.8129 37.6827 32.4559 39.0538C31.0988 40.4248 30.2881 42.2508 30.1775 44.1852C30.0867 45.7729 30.4729 47.3428 31.2732 48.6946C31.564 49.1859 31.4955 49.8347 31.0508 50.1898C30.606 50.545 29.955 50.4715 29.651 49.9884C28.5454 48.2314 28.0073 46.1609 28.127 44.0659C28.2666 41.6245 29.2898 39.3199 31.0025 37.5895C31.2449 37.3446 31.4988 37.1136 31.7628 36.8971C31.7572 36.853 31.7543 36.8082 31.7543 36.7626V26.3248C27.0227 26.4337 22.4338 26.6777 18.3146 27.0553C17.742 27.1078 17.2356 26.682 17.1836 26.1043C17.1316 25.5266 17.5536 25.0157 18.1262 24.9632C22.3058 24.5801 26.9588 24.333 31.7543 24.2235V15.7295C30.1229 15.566 28.713 14.6426 27.8774 13.315L22.8107 15.445C22.8725 15.7134 22.9052 15.9932 22.9052 16.2806C22.9052 18.3109 21.2738 19.9568 19.2615 19.9568C17.2491 19.9568 15.6177 18.3109 15.6177 16.2806C15.6177 14.2502 17.2491 12.6043 19.2615 12.6043C20.2308 12.6043 21.1118 12.9862 21.7645 13.609L27.1368 11.3506C27.0925 11.0749 27.0695 10.7919 27.0695 10.5036C27.0695 10.0583 27.1244 9.62603 27.2278 9.21317L18.4117 6.24826C18.3556 6.2294 18.3022 6.20619 18.2516 6.17912ZM16.6588 4.20144C16.6588 5.36163 15.7266 6.30216 14.5766 6.30216C13.4267 6.30216 12.4945 5.36163 12.4945 4.20144C12.4945 3.04124 13.4267 2.10072 14.5766 2.10072C15.7266 2.10072 16.6588 3.04124 16.6588 4.20144ZM33.8365 26.2857C39.7226 26.2 45.7534 26.3205 51.3127 26.6502L45.0221 37.6128C44.7417 37.3276 44.4432 37.0585 44.1277 36.8073C42.225 35.2924 39.8372 34.5352 37.4177 34.6793C36.1675 34.7538 34.9538 35.0663 33.8365 35.5896V26.2857ZM13.015 63.5277V37.6845C12.8551 37.6611 12.6774 37.6341 12.484 37.6031C11.596 37.461 10.3728 37.2359 9.03346 36.9036C6.79521 36.3485 4.06724 35.4565 2.08375 34.0471V67.2C5.52697 69.5737 8.72643 70.6484 13.015 70.8639V63.5633C13.0148 63.5514 13.0148 63.5395 13.015 63.5277ZM32.2749 13.6547C33.9998 13.6547 35.3981 12.2439 35.3981 10.5036C35.3981 8.7633 33.9998 7.35252 32.2749 7.35252C30.55 7.35252 29.1517 8.7633 29.1517 10.5036C29.1517 12.2439 30.55 13.6547 32.2749 13.6547ZM20.8231 16.2806C20.8231 17.1507 20.1239 17.8561 19.2615 17.8561C18.399 17.8561 17.6998 17.1507 17.6998 16.2806C17.6998 15.4104 18.399 14.705 19.2615 14.705C20.1239 14.705 20.8231 15.4104 20.8231 16.2806Z" fill="white" fill-opacity="0.8"/>
<path d="M61.4249 4.72662C61.4249 4.14652 61.891 3.67626 62.466 3.67626H70.7946C71.3696 3.67626 71.8357 4.14652 71.8357 4.72662C71.8357 5.30672 71.3696 5.77698 70.7946 5.77698H62.466C61.891 5.77698 61.4249 5.30672 61.4249 4.72662Z" fill="white" fill-opacity="0.8"/>
<path d="M61.4249 9.45324C61.4249 8.87314 61.891 8.40288 62.466 8.40288H70.7946C71.3696 8.40288 71.8357 8.87314 71.8357 9.45324C71.8357 10.0333 71.3696 10.5036 70.7946 10.5036H62.466C61.891 10.5036 61.4249 10.0333 61.4249 9.45324Z" fill="white" fill-opacity="0.8"/>
<path d="M61.4249 14.1799C61.4249 13.5998 61.891 13.1295 62.466 13.1295H68.1919C68.7669 13.1295 69.233 13.5998 69.233 14.1799C69.233 14.76 68.7669 15.2302 68.1919 15.2302H62.466C61.891 15.2302 61.4249 14.76 61.4249 14.1799Z" fill="white" fill-opacity="0.8"/>
<path fill-rule="evenodd" clip-rule="evenodd" d="M41.2708 44.007C41.9368 44.4113 41.9447 45.3826 41.2854 45.7979L37.3687 48.2649C36.6786 48.6996 35.7831 48.2034 35.7764 47.3825L35.7367 42.5139C35.73 41.6931 36.6174 41.1821 37.3145 41.6053L41.2708 44.007ZM40.734 44.907L36.8174 47.3739L36.7778 42.5053L40.734 44.907Z" fill="white" fill-opacity="0.8"/>
</svg>
