<svg width="16" height="10" viewBox="0 0 16 10" fill="none" xmlns="http://www.w3.org/2000/svg">
<path d="M4.73469 8.01039V1.98998L1.58601 5.00019L4.73469 8.01039ZM4.5481 9.72732L0.25656 5.62452C0.163265 5.53533 0.0973372 5.43871 0.0587755 5.33465C0.0195918 5.2306 0 5.11911 0 5.00019C0 4.88126 0.0195918 4.76977 0.0587755 4.66572C0.0973372 4.56166 0.163265 4.46504 0.25656 4.37585L4.5481 0.27305C4.84354 -0.00938921 5.18157 -0.0727148 5.56222 0.0830726C5.94348 0.239455 6.13411 0.518326 6.13411 0.919687V9.08069C6.13411 9.48205 5.94348 9.76062 5.56222 9.91641C5.18157 10.0728 4.84354 10.0098 4.5481 9.72732ZM11.4519 9.72732C11.1565 10.0098 10.8184 10.0728 10.4378 9.91641C10.0565 9.76062 9.86589 9.48205 9.86589 9.08069V0.919687C9.86589 0.518326 10.0565 0.239455 10.4378 0.0830726C10.8184 -0.0727148 11.1565 -0.00938921 11.4519 0.27305L15.7434 4.37585C15.8367 4.46504 15.903 4.56166 15.9422 4.66572C15.9807 4.76977 16 4.88126 16 5.00019C16 5.11911 15.9807 5.2306 15.9422 5.33465C15.903 5.43871 15.8367 5.53533 15.7434 5.62452L11.4519 9.72732Z" fill="white"/>
</svg>
