<?xml version="1.0" encoding="UTF-8" standalone="no"?>
<svg
   width="30"
   height="30"
   viewBox="0 0 30 30"
   xmlns="http://www.w3.org/2000/svg"
   >
  <path
     d="M 11.5481,19.7273 7.25656,15.6245 C 7.16327,15.5353 7.09734,15.4387 7.05878,15.3347 7.01959,15.2306 7,15.1191 7,15.0002 7,14.8813 7.01959,14.7698 7.05878,14.6657 7.09734,14.5617 7.16327,14.465 7.25656,14.3758 L 11.5481,10.273 c 0.2954,-0.28239 0.6335,-0.34571 1.0141,-0.1899 0.3813,0.1564 0.5719,0.4352 0.5719,0.8366 v 8.161 c 0,0.4013 -0.1906,0.6799 -0.5719,0.8357 -0.3806,0.1564 -0.7187,0.0934 -1.0141,-0.1891 z m 6.9038,0 c -0.2954,0.2825 -0.6335,0.3455 -1.0141,0.1891 -0.3813,-0.1558 -0.5719,-0.4344 -0.5719,-0.8357 v -8.161 c 0,-0.4014 0.1906,-0.6802 0.5719,-0.8366 0.3806,-0.15581 0.7187,-0.09249 1.0141,0.1899 l 4.2915,4.1028 c 0.0933,0.0892 0.1596,0.1859 0.1988,0.2899 0.0385,0.1041 0.0578,0.2156 0.0578,0.3345 0,0.1189 -0.0193,0.2304 -0.0578,0.3345 -0.0392,0.104 -0.1055,0.2006 -0.1988,0.2898 z"
     fill="#ffffff"
     id="path1529"
  />
</svg>
